<svg width="248" height="248" viewBox="0 0 248 248" fill="none" xmlns="http://www.w3.org/2000/svg">
<path d="M228.313 0H19.6874C8.81434 0 0 8.81434 0 19.6874V228.313C0 239.186 8.81434 248 19.6874 248H228.313C239.186 248 248 239.186 248 228.313V19.6874C248 8.81434 239.186 0 228.313 0Z" fill="white"/>
<path d="M124 28.6152C105.135 28.6152 86.6932 34.2094 71.0073 44.6904C55.3214 55.1714 43.0957 70.0685 35.8762 87.4977C28.6568 104.927 26.7679 124.106 30.4483 142.608C34.1287 161.111 43.2133 178.107 56.553 191.447C69.8928 204.787 86.8887 213.871 105.392 217.552C123.894 221.232 143.073 219.343 160.502 212.124C177.932 204.904 192.829 192.679 203.31 176.993C213.791 161.307 219.385 142.865 219.385 124C219.385 111.474 216.918 99.0703 212.124 87.4977C207.331 75.9251 200.305 65.41 191.447 56.5527C182.59 47.6955 172.075 40.6695 160.502 35.876C148.93 31.0824 136.526 28.6152 124 28.6152ZM124 152.615C118.373 152.593 112.878 150.905 108.209 147.764C103.54 144.624 99.9045 140.172 97.7615 134.968C95.6186 129.765 95.0638 124.044 96.1672 118.526C97.2705 113.008 99.9826 107.94 103.962 103.961C107.941 99.9823 113.008 97.2702 118.526 96.1669C124.044 95.0635 129.765 95.6183 134.969 97.7612C140.172 99.9042 144.624 103.539 147.765 108.209C150.905 112.878 152.593 118.373 152.616 124C152.626 127.76 151.892 131.486 150.458 134.962C149.023 138.439 146.916 141.597 144.257 144.256C141.598 146.916 138.439 149.023 134.963 150.458C131.486 151.892 127.761 152.625 124 152.615Z" fill="#AF937E"/>
<path d="M139.3 51.0879C128.998 48.9131 118.773 42.3506 109.006 44.2202C99.2382 46.0897 91.7601 56.0479 83.2518 61.6183C74.7435 67.1888 62.8013 69.6688 56.9638 78.1771C51.1262 86.6854 53.1484 98.3605 51.0881 108.7C49.0278 119.04 42.3508 129.227 44.2204 138.994C46.0899 148.762 56.0481 156.24 61.6185 164.748C67.189 173.257 69.669 185.199 78.1773 191.036C86.6856 196.874 98.3607 194.852 108.7 196.912C119.04 198.972 129.227 205.649 138.995 203.78C148.762 201.91 156.24 191.952 164.748 186.381C173.257 180.811 185.199 178.331 191.036 169.823C196.874 161.314 194.852 149.639 196.912 139.3C198.972 128.96 205.649 118.773 203.78 109.005C201.91 99.238 191.952 91.7599 186.382 83.2516C180.811 74.7433 178.331 62.8011 169.823 56.9636C161.315 51.126 149.639 53.4153 139.3 51.0879Z" fill="#E5ACD4"/>
<path d="M139.3 51.0879C128.998 48.9131 118.773 42.3506 109.006 44.2202C99.2382 46.0897 91.7601 56.0479 83.2518 61.6183C74.7435 67.1888 62.8013 69.6688 56.9638 78.1771C51.1262 86.6854 53.1484 98.3605 51.0881 108.7C49.0278 119.04 42.3508 129.227 44.2204 138.994C46.0899 148.762 56.0481 156.24 61.6185 164.748C67.189 173.257 69.669 185.199 78.1773 191.036C86.6856 196.874 98.3607 194.852 108.7 196.912C119.04 198.972 129.227 205.649 138.995 203.78C148.762 201.91 156.24 191.952 164.748 186.381C173.257 180.811 185.199 178.331 191.036 169.823C196.874 161.314 194.852 149.639 196.912 139.3C198.972 128.96 205.649 118.773 203.78 109.005C201.91 99.238 191.952 91.7599 186.382 83.2516C180.811 74.7433 178.331 62.8011 169.823 56.9636C161.315 51.126 149.639 53.4153 139.3 51.0879Z" stroke="white" stroke-width="6.16189" stroke-miterlimit="10"/>
<path d="M124 152.615C118.373 152.593 112.879 150.905 108.209 147.764C103.54 144.624 99.9046 140.172 97.7616 134.969C95.6187 129.765 95.0639 124.044 96.1673 118.526C97.2706 113.008 99.9827 107.941 103.962 103.962C107.941 99.9825 113.009 97.2704 118.527 96.167C124.045 95.0637 129.766 95.6184 134.969 97.7614C140.172 99.9044 144.624 103.54 147.765 108.209C150.905 112.878 152.593 118.373 152.616 124C152.626 127.761 151.892 131.486 150.458 134.963C149.023 138.439 146.916 141.597 144.257 144.257C141.598 146.916 138.439 149.023 134.963 150.458C131.486 151.892 127.761 152.625 124 152.615Z" fill="white"/>
<path d="M124 152.615C118.373 152.593 112.879 150.905 108.209 147.764C103.54 144.624 99.9046 140.172 97.7616 134.969C95.6187 129.765 95.0639 124.044 96.1673 118.526C97.2706 113.008 99.9827 107.941 103.962 103.962C107.941 99.9825 113.009 97.2704 118.527 96.167C124.045 95.0637 129.766 95.6184 134.969 97.7614C140.172 99.9044 144.624 103.54 147.765 108.209C150.905 112.878 152.593 118.373 152.616 124C152.626 127.761 151.892 131.486 150.458 134.963C149.023 138.439 146.916 141.597 144.257 144.257C141.598 146.916 138.439 149.023 134.963 150.458C131.486 151.892 127.761 152.625 124 152.615Z" fill="white"/>
</svg>
